# xmcd
#
# Track frame offsets: 
#        150
#        14452
#        27313
#        54327
#        67130
#        85391
#        100617
#        136573
#        157038
#        177344
#        201348
#        220670
#        234020
#
# Disc length: 3358 seconds
#
# Revision: 0
# Processed by: cddbd v1.5.1PL0 Copyright (c) Steve Scherf et al.
# Submitted via: ExactAudioCopy v0.95a5
#
DISCID=a70d1c0d
DTITLE=Various Artist - When You Know Blues
DYEAR=2000
DGENRE=Blues
TTITLE0=Lowell Fulson - Reconsider Baby
TTITLE1=Muddy Waters - I Just Want to Make Love to You
TTITLE2=Memphis Slim and Buddy Guy - Rolling and Tumbling
TTITLE3=Howlin' Wolf - Love Me Darlin'
TTITLE4=Savoy Brown - Highway Blues
TTITLE5=Sonny Boy Williamson - Cross My Heart
TTITLE6=Jimmy Smith - Got My Mojo Working
TTITLE7=Billie Myers - Kiss the Rain
TTITLE8=Charlie Sexton - Seems So Wrong
TTITLE9=Joan Osborne - St. Teresa
TTITLE10=Traffic - Feelin' Alright?
TTITLE11=John Lee Hooker - It's My Own Fault
TTITLE12=T-Bone Walker - I'm in Love
EXTD=
EXTT0=
EXTT1=
EXTT2=
EXTT3=
EXTT4=
EXTT5=
EXTT6=
EXTT7=
EXTT8=
EXTT9=
EXTT10=
EXTT11=
EXTT12=
PLAYORDER=
